<?xml version="1.0" standalone="no"?><!DOCTYPE svg PUBLIC "-//W3C//DTD SVG 1.1//EN" "http://www.w3.org/Graphics/SVG/1.1/DTD/svg11.dtd"><svg t="1734406334646" class="icon" viewBox="0 0 1024 1024" version="1.1" xmlns="http://www.w3.org/2000/svg" p-id="2759" id="mx_n_1734406334647" width="200" height="200" xmlns:xlink="http://www.w3.org/1999/xlink"><path d="M298.666667 234.666667h426.666666c34.133333 0 64 29.866667 64 64v426.666666c0 34.133333-29.866667 64-64 64H298.666667c-34.133333 0-64-29.866667-64-64V298.666667c0-34.133333 29.866667-64 64-64z m0 42.666666c-12.8 0-21.333333 8.533333-21.333334 21.333334v426.666666c0 12.8 8.533333 21.333333 21.333334 21.333334h426.666666c12.8 0 21.333333-8.533333 21.333334-21.333334V298.666667c0-12.8-8.533333-21.333333-21.333334-21.333334H298.666667z m128 153.6c-17.066667-8.533333-29.866667-21.333333-42.666667-34.133333-8.533333-8.533333-8.533333-17.066667 0-25.6 12.8-8.533333 21.333333-12.8 29.866667-4.266667l8.533333 8.533334c21.333333 17.066667 29.866667 25.6 29.866667 29.866666 8.533333 8.533333 8.533333 17.066667 0 25.6-8.533333 8.533333-17.066667 8.533333-25.6 0z m46.933333-17.066666c-8.533333 0-17.066667-8.533333-17.066667-17.066667 0-12.8 4.266667-17.066667 17.066667-17.066667h157.866667c17.066667 0 29.866667 8.533333 29.866666 21.333334V640c0 25.6-17.066667 38.4-51.2 34.133333-12.8 0-21.333333 0-34.133333-4.266666-12.8-4.266667-17.066667-12.8-17.066667-25.6 4.266667-12.8 12.8-17.066667 25.6-12.8 4.266667 0 8.533333 0 17.066667 4.266666h8.533333c8.533333 0 12.8-4.266667 12.8-8.533333V418.133333c0-4.266667 0-4.266667-4.266666-4.266666h-145.066667z m12.8 55.466666c-8.533333 0-12.8-8.533333-12.8-17.066666 0-12.8 4.266667-17.066667 12.8-17.066667H597.333333c12.8 0 17.066667 8.533333 17.066667 17.066667 0 12.8-4.266667 17.066667-17.066667 17.066666h-110.933333z m-110.933333 17.066667c-8.533333 0-17.066667-8.533333-17.066667-21.333333s4.266667-17.066667 17.066667-17.066667h34.133333c17.066667 0 25.6 8.533333 21.333333 29.866667v128s4.266667 0 4.266667-4.266667c0 0 4.266667-4.266667 4.266667-8.533333s4.266667-4.266667 4.266666-8.533334c4.266667-8.533333 12.8-8.533333 25.6-4.266666 8.533333 4.266667 8.533333 12.8 4.266667 25.6-4.266667 8.533333-12.8 21.333333-25.6 38.4s-25.6 25.6-38.4 21.333333c-12.8-4.266667-17.066667-12.8-17.066667-34.133333v-145.066667c0-4.266667 0-4.266667-4.266666-4.266667h-12.8z m128 132.266667c-17.066667 0-29.866667-8.533333-29.866667-25.6V512c0-17.066667 8.533333-25.6 25.6-25.6h76.8c17.066667 0 25.6 8.533333 25.6 21.333333v81.066667c0 17.066667-8.533333 25.6-25.6 25.6h-72.533333z m8.533333-38.4s4.266667 0 0 0l51.2 4.266666c4.266667 0 4.266667 0 4.266667-4.266666v-51.2c0-4.266667 0-4.266667-4.266667-4.266667h-46.933333c-4.266667 0-4.266667 0-4.266667 4.266667v51.2z" p-id="2760" fill="#bfbfbf"></path></svg>