<?xml version="1.0" standalone="no"?><!DOCTYPE svg PUBLIC "-//W3C//DTD SVG 1.1//EN" "http://www.w3.org/Graphics/SVG/1.1/DTD/svg11.dtd"><svg t="1736129644090" class="icon" viewBox="0 0 1024 1024" version="1.1" xmlns="http://www.w3.org/2000/svg" p-id="16905" width="32" height="32" xmlns:xlink="http://www.w3.org/1999/xlink"><path d="M368.174545 662.807273a116.363636 116.363636 0 0 0 10.705455 28.858182 982.109091 982.109091 0 0 0-139.636364 107.054545 120.087273 120.087273 0 0 0-20.945454-25.6 86.574545 86.574545 0 0 0 36.305454-66.094545V434.734545H134.981818v-33.512727h150.807273v317.44zM291.374545 333.265455a787.549091 787.549091 0 0 0-107.985454-109.381819l22.341818-22.341818a738.676364 738.676364 0 0 1 108.450909 106.589091z m461.265455 437.527272c0 26.996364-6.981818 38.632727-25.6 46.545455a460.334545 460.334545 0 0 1-112.174545 6.516363 254.603636 254.603636 0 0 0-13.032728-35.374545h101.003637c12.567273 0 17.221818-4.189091 17.221818-16.756364V245.294545H362.123636v-32.116363h390.516364z m157.323636-409.6H382.138182v-31.650909h527.825454z m-30.72 81.92H791.272727v-31.650909h87.970909zM837.818182 525.032727h-46.545455v-31.650909h46.545455z m-391.912727 143.36v51.665455h-31.185455v-274.618182h202.938182v222.952727z m0-192.232727v161.047273h139.636363v-161.047273z" fill="#2c2c2c" p-id="16906"></path></svg>