<?xml version="1.0" standalone="no"?><!DOCTYPE svg PUBLIC "-//W3C//DTD SVG 1.1//EN" "http://www.w3.org/Graphics/SVG/1.1/DTD/svg11.dtd"><svg t="1736127710903" class="icon" viewBox="0 0 1024 1024" version="1.1" xmlns="http://www.w3.org/2000/svg" p-id="13091" xmlns:xlink="http://www.w3.org/1999/xlink" width="200" height="200"><path d="M842.8389748 753.03384594l-57.19384688-57.19384594a27.69230813 27.69230813 0 0 1 39.13846219-39.13846125l99.69230719 99.69230719a27.69230813 27.69230813 0 0 1 4.7630775 32.86153875 27.69230813 27.69230813 0 0 1-4.98461625 6.72l-99.69230719 99.69230719a27.69230813 27.69230813 0 1 1-39.13846125-39.13846125l48.44307656-48.48a383.22461531 383.22461531 0 0 1-308.52923062-162.35076938l-156.4430775-221.87076937a328.94769188 328.94769188 0 0 0-268.8-139.38461532 27.69230813 27.69230813 0 0 1 0-55.38461531c124.91076938 0 242.06769187 60.73846125 314.06769281 162.83076938l156.44307656 221.90769281a327.84 327.84 0 0 0 267.91384688 138.90461531c1.47692344 0 2.91692344 0.11076937 4.32 0.33230719z m-6.46153875-523.75384594L786.05128198 178.91692344a27.69230813 27.69230813 0 0 1 39.13846125-39.13846219l99.69230813 99.69230813a27.61846125 27.61846125 0 0 1 8.12307656 20.30769187 27.61846125 27.61846125 0 0 1-8.12307656 20.30769281l-99.69230813 99.69230719A27.69230813 27.69230813 0 0 1 786.05128198 340.56615406l56.08615407-56.08615406c-104.86153875 2.10461531-203.33538469 55.60615406-266.76923063 145.55076937l-13.36615406 18.94153875a27.69230813 27.69230813 0 0 1-45.23076938-31.90153875l13.32923063-18.97846125c72.55384594-102.83076938 185.35384594-164.93538469 306.27692344-168.84923156zM446.80205136 612.43076937l-19.08923063 27.06461532c-74.76923062 106.00615406-192.40615406 168.59076937-317.53846219 168.59076937a27.69230813 27.69230813 0 0 1 1e-8-55.38461531c106.89230812 0 207.76615406-53.64923062 272.27076937-145.10769281l19.08923062-27.06461532a27.69230813 27.69230813 0 0 1 45.26769282 31.90153875z" fill="#5F6062" p-id="13092"></path></svg>