<?xml version="1.0" standalone="no"?><!DOCTYPE svg PUBLIC "-//W3C//DTD SVG 1.1//EN" "http://www.w3.org/Graphics/SVG/1.1/DTD/svg11.dtd"><svg t="1736148177640" class="icon" viewBox="0 0 1024 1024" version="1.1" xmlns="http://www.w3.org/2000/svg" p-id="18940" xmlns:xlink="http://www.w3.org/1999/xlink" width="32" height="32"><path d="M296.8 272h560.8v-44c0-16.8 19.2-25.6 32-15.2l94.4 80c9.6 8 8.8 23.2-0.8 30.4l-94.4 72.8c-12.8 9.6-31.2 0.8-31.2-15.2V336H296.8c-109.6 0-199.2 89.6-199.2 199.2v17.6C97.6 662.4 186.4 752 296.8 752h561.6c17.6 0 32 14.4 32 32s-14.4 32-32 32H296.8C151.2 816 33.6 697.6 33.6 552.8v-17.6C33.6 389.6 151.2 272 296.8 272z" fill="#2c2c2c" p-id="18941"></path></svg>